# xmcd
#
# Track frame offsets: 
#        150
#        15775
#        43771
#        72007
#        93190
#        109880
#        129487
#        152302
#
# Disc length: 2284 seconds
#
# Revision: 2
# Processed by: cddbd v1.5.2PL0 Copyright (c) Steve Scherf et al.
# Submitted via: ExactAudioCopy v0.99pb4
#
DISCID=5208ea08
DTITLE=Аркадий Северный - И Ансамбль 6+1. Часть 2
DYEAR=1999
DGENRE=Chanson
TTITLE0=Мама, Мама
TTITLE1=Конец Долгой Разлуки
TTITLE2=Вернется Снова Счастье К Нам
TTITLE3=Бутылка Вина
TTITLE4=Отцвела Черемуха
TTITLE5=Дни Уходят От Нас Чередой
TTITLE6=Тихий Вечер,Теплый Вечер
TTITLE7=Ялта
EXTD=
EXTT0=
EXTT1=
EXTT2=
EXTT3=
EXTT4=
EXTT5=
EXTT6=
EXTT7=
PLAYORDER=
